<?xml version="1.0" encoding="UTF-8" standalone="no"?>
<!-- Created with Inkscape (http://www.inkscape.org/) -->

<svg
   version="1.1"
   id="svg1"
   width="530"
   height="530"
   viewBox="0 0 530 530"
   sodipodi:docname="favicon.svg"
   inkscape:version="1.4.4 (dcaf3e7, 2026-05-05)"
   xmlns:inkscape="http://www.inkscape.org/namespaces/inkscape"
   xmlns:sodipodi="http://sodipodi.sourceforge.net/DTD/sodipodi-0.dtd"
   xmlns="http://www.w3.org/2000/svg"
   xmlns:svg="http://www.w3.org/2000/svg">
  <defs
     id="defs1">
    <clipPath
       clipPathUnits="userSpaceOnUse"
       id="clipPath10">
      <rect
         style="fill:none;stroke-width:1.00076"
         id="rect11"
         width="592.29095"
         height="538.41376"
         x="212.94547"
         y="69.923859" />
    </clipPath>
    <clipPath
       clipPathUnits="userSpaceOnUse"
       id="clipPath1">
      <rect
         style="fill:none;stroke-width:1.05391"
         id="rect2"
         width="530"
         height="530.80225"
         x="249.0182"
         y="74.585449" />
    </clipPath>
  </defs>
  <sodipodi:namedview
     id="namedview1"
     pagecolor="#ffffff"
     bordercolor="#000000"
     borderopacity="0.25"
     inkscape:showpageshadow="2"
     inkscape:pageopacity="0.0"
     inkscape:pagecheckerboard="0"
     inkscape:deskcolor="#d1d1d1"
     inkscape:zoom="0.859375"
     inkscape:cx="506.18182"
     inkscape:cy="561.45455"
     inkscape:window-width="2007"
     inkscape:window-height="1186"
     inkscape:window-x="626"
     inkscape:window-y="1232"
     inkscape:window-maximized="0"
     inkscape:current-layer="g1"
     showguides="false" />
  <g
     inkscape:groupmode="layer"
     inkscape:label="Image"
     id="g1"
     style="display:inline"
     transform="translate(-36.072734,-4.6545455)">
    <g
       id="g2"
       style="display:inline"
       transform="matrix(1,0,0,0.99848865,-212.94547,-69.818179)"
       clip-path="url(#clipPath1)">
      <path
         style="display:inline;fill:#74bde7"
         d="M 0,769.92995 V 335.00829 l 1023.4727,-0.17193 0.086,433.07728 z"
         id="path6"
         sodipodi:nodetypes="ccccc" />
      <path
         style="display:inline;fill:#b0dbf7"
         d="M 0,167.60699 V 0 h 512 512 V 167 334 C 860.45062,334.20694 1.5817875,334.60699 1.5817875,334.60699 c 0,0 -1.5817875,1.71572 -1.5817875,-167 z"
         id="path10"
         sodipodi:nodetypes="sccccccs" />
      <path
         style="fill:#f4cb97"
         d="M 296.87419,532.13941 C 268.91514,523.658 254,511.32671 254,499.73618 c 0,-3.96283 3.86569,-11.96893 7.91493,-16.39234 6.39817,-6.98939 21.54999,-17.51135 34.97709,-24.28933 11.64899,-5.88039 38.90175,-16.14562 55.60798,-20.94572 15.35244,-4.41112 69.49063,-18.05659 124.66902,-18.16987 69.35291,-0.14237 142.27181,5.87299 164.33098,10.57615 25.93543,5.5296 47.16989,12.06305 68.80127,21.16887 11.0769,4.66287 14.31358,6.87742 4.7289,3.23552 -18.29372,-6.95106 49.22801,60.87637 15.85165,76.03523 -100.06956,45.44955 -344.86598,28.22593 -434.00763,1.18472 z"
         id="path9"
         sodipodi:nodetypes="sssssssssss" />
      <path
         style="display:inline;fill:#e2b482"
         d="m 524.25,520.14426 c -17.17343,-4.52131 -33.09029,-10.18701 -46.47753,-21.80173 -9.48462,-8.89758 -11.32697,-16.51601 -5.82934,-24.10527 14.91467,-20.5891 79.6483,-32.49458 149.55687,-32.88252 49.2001,-0.27303 86.80239,9.02621 128,31.1559 13.00548,6.98602 20.5,19.63165 20.5,26.87003 0,11.66113 -14.17023,22.49885 -42,32.12256 -20.51193,7.09317 -27.9089,8.22237 -52.5,8.43467 -60.59224,0.5231 -136.19199,-15.82926 -151.25,-19.79364 z"
         id="path7"
         sodipodi:nodetypes="sssssssss" />
      <path
         style="fill:#74a649"
         d="M 591.70228,297.11856 C 588.56603,292.56563 586,288.36703 586,287.7883 c 0,-0.57873 0.9367,-2.56785 2.08156,-4.42027 2.41254,-3.90357 1.91688,-4.14822 -2.66596,-1.31587 l -3.32046,2.05216 -3.52278,-4.80216 c -1.93753,-2.64119 -3.53393,-5.49824 -3.54757,-6.349 -0.0136,-0.85076 1.7445,-6.81326 3.90696,-13.25 C 581.09421,253.26642 582.56666,248 582.20387,248 c -0.36279,0 -4.15109,3.47099 -8.41844,7.71331 -4.93362,4.90468 -8.10336,7.36254 -8.70504,6.75 -0.52042,-0.52982 -4.53144,-5.91331 -8.91338,-11.96331 l -7.96715,-11 3.51974,-4.797 c 1.93585,-2.63835 3.31149,-5.00525 3.05695,-5.25978 -0.25453,-0.25453 -2.79397,0.50602 -5.64322,1.69011 -2.84924,1.18409 -5.33291,1.976 -5.51926,1.75978 -0.18635,-0.21621 -4.0853,-5.56811 -8.66433,-11.89311 -4.57903,-6.325 -8.4972,-11.71873 -8.70703,-11.98608 -0.20984,-0.26734 -2.26279,0.56552 -4.56212,1.85079 -2.29932,1.28528 -6.65559,3.69416 -9.68059,5.35307 -3.025,1.65891 -6.69447,3.86356 -8.15437,4.89921 -1.4599,1.03566 -3.01787,1.88301 -3.46215,1.88301 -0.44428,0 -2.71734,-1.87409 -5.05125,-4.16465 l -4.24347,-4.16466 0.55942,6.91466 0.55942,6.91465 -5.8538,3.42075 c -3.21959,1.88142 -8.49907,5.16115 -11.73217,7.2883 -3.2331,2.12715 -5.96365,3.73781 -6.06789,3.57925 -0.10424,-0.15857 -2.15255,-4.6758 -4.55182,-10.0383 -2.39926,-5.3625 -4.73121,-9.75 -5.18211,-9.75 -0.45089,0 -0.81981,4.66875 -0.81981,10.375 0,14.88909 -0.34689,15.99741 -6.17819,19.73934 l -4.93921,3.16949 -2.81682,-3.3741 -2.81681,-3.37409 0.45056,4.98218 0.45056,4.98218 -7.82505,4.99575 c -4.30377,2.74767 -8.38754,5.14316 -9.07504,5.32333 -1.57573,0.41293 -1.63672,-4.89394 -0.17688,-15.38984 4.58633,-32.97449 28.10545,-57.02546 58.65724,-59.9837 7.42528,-0.71896 8.61331,-1.72681 3.29045,-2.79138 -2.93673,-0.58734 -3.02188,-0.76491 -3.05923,-6.37916 l -0.0384,-5.775 -4.21158,4.68703 -4.21158,4.68704 -13,-3.54957 c -7.15,-1.95227 -13.40754,-3.92897 -13.90564,-4.39268 -0.53028,-0.49366 0.66995,-4.60039 2.89579,-9.90833 2.09079,-4.98588 3.56167,-9.30501 3.26861,-9.59806 -0.29305,-0.29305 -4.94346,3.29049 -10.33425,7.96342 -5.39079,4.67293 -10.05413,8.3522 -10.36297,8.17616 -0.30885,-0.17604 -3.17315,-1.06977 -6.36512,-1.98605 -4.61678,-1.3253 -5.70008,-2.01495 -5.29749,-3.37247 0.27835,-0.93857 0.79295,-3.05649 1.14355,-4.70649 l 0.63746,-3 -3.42744,3.92738 -3.42745,3.92738 -6.41252,-1.74161 c -12.68818,-3.44603 -13.13045,-3.64565 -11.75353,-5.30473 2.4018,-2.89399 12.38935,-10.04619 18.341,-13.13419 20.13132,-10.44511 44.55746,-11.91844 60.5433,-3.65184 3.11216,1.60936 3.22108,1.60218 2.60002,-0.17133 -0.60213,-1.71942 -0.5533,-1.72931 0.68659,-0.13918 2.10171,2.69539 11.36976,8.74679 12.22185,7.98002 0.42289,-0.38054 0.47635,-0.17983 0.11881,0.44603 -0.36708,0.64255 1.33815,2.76714 3.917,4.88031 6.33231,5.18885 18.62246,19.4485 24.75892,28.72652 2.8211,4.26538 5.80973,7.75383 6.6414,7.7521 2.62402,-0.005 24.44295,6.29485 26.01211,7.5111 0.825,0.63946 3.075,1.75656 5,2.48245 10.63789,4.01141 19.79202,9.76271 27.04329,16.99061 12.76265,12.72152 18.06765,26.27311 18.21062,46.51898 0.0823,11.65205 -1.3678,19.10748 -5.59041,28.74226 l -2.25894,5.15426 z M 575.07895,199.4167 c 0.048,-1.16495 0.28494,-1.4019 0.60416,-0.60417 0.28887,0.72187 0.25335,1.58437 -0.0789,1.91667 -0.33229,0.33229 -0.56864,-0.25834 -0.52522,-1.3125 z M 631.40499,191.75 629.5,189.5 l 2.25,1.90499 c 1.2375,1.04774 2.25,2.06024 2.25,2.25 0,0.80025 -0.80479,0.20945 -2.59501,-1.90499 z M 526.07895,174.41667 c 0.048,-1.16495 0.28494,-1.4019 0.60416,-0.60417 0.28887,0.72187 0.25335,1.58437 -0.0789,1.91667 -0.33229,0.33229 -0.56864,-0.25834 -0.52522,-1.3125 z m 56.19008,0.89034 c 0.97297,-0.25354 2.32297,-0.23687 3,0.0371 0.67703,0.27393 -0.11903,0.48137 -1.76903,0.46099 -1.65,-0.0204 -2.20394,-0.2445 -1.23097,-0.49804 z m 10.48097,0.0307 c 0.6875,-0.27741 1.8125,-0.27741 2.5,0 0.6875,0.27741 0.125,0.50439 -1.25,0.50439 -1.375,0 -1.9375,-0.22698 -1.25,-0.50439 z M 553,172.83333 C 553,172.375 553.42344,172 553.94098,172 c 0.51754,0 1.17275,0.375 1.45601,0.83333 0.28327,0.45834 -0.14017,0.83334 -0.94098,0.83334 -0.8008,0 -1.45601,-0.375 -1.45601,-0.83334 z m -53.24085,-14.90752 c 1.24253,-1.4158 1.95503,-2.8783 1.58333,-3.25 -0.3717,-0.37169 -0.15081,-0.67581 0.49085,-0.67581 1.91869,0 1.3347,1.50324 -1.58333,4.07569 L 497.5,160.5 Z M 580.40499,156.75 578.5,154.5 l 2.25,1.90499 c 1.2375,1.04774 2.25,2.06024 2.25,2.25 0,0.80025 -0.80479,0.20945 -2.59501,-1.90499 z M 573.2,148.8 c -1.52396,-1.52396 -1.53915,-2.8 -0.0333,-2.8 0.64166,0 0.87057,0.2961 0.50867,0.65799 -0.36189,0.3619 -0.15679,1.2619 0.45578,2 1.38293,1.66632 0.6977,1.77083 -0.93112,0.14201 z m 29.46667,-4.46667 C 601.73453,143.4012 601.83462,142 602.83333,142 c 0.45834,0 0.83334,0.675 0.83334,1.5 0,1.69935 -0.0731,1.76025 -1,0.83333 z m 23.66666,-9.78934 c 0,-0.80081 0.38234,-1.21971 0.84965,-0.9309 0.4673,0.28881 0.59075,0.94401 0.27431,1.45601 -0.80862,1.30838 -1.12396,1.16106 -1.12396,-0.52511 z m -36.60563,-8.26572 c 1.77523,-0.22091 4.92523,-0.22454 7,-0.008 2.07476,0.21648 0.6223,0.39722 -3.2277,0.40166 -3.85,0.004 -5.54754,-0.17268 -3.7723,-0.39359 z M 507.87244,119.25 c -1.24387,-1.58606 -1.2085,-1.62143 0.37756,-0.37756 0.9625,0.75485 1.75,1.54235 1.75,1.75 0,0.82304 -0.82119,0.29331 -2.12756,-1.37244 z M 458,116.32165 c 0,-0.55642 1.0125,-1.86892 2.25,-2.91666 L 462.5,111.5 460.51066,114 c -1.09414,1.375 -2.10664,2.6875 -2.25,2.91667 C 458.1173,117.14583 458,116.87808 458,116.32165 Z M 499.87244,111.25 c -1.24387,-1.58606 -1.2085,-1.62143 0.37756,-0.37756 0.9625,0.75485 1.75,1.54235 1.75,1.75 0,0.82304 -0.82119,0.29331 -2.12756,-1.37244 z M 460.8125,95.316886 c 0.72187,-0.288871 1.58438,-0.253344 1.91667,0.07895 0.33229,0.332292 -0.25834,0.568641 -1.3125,0.52522 -1.16495,-0.04798 -1.4019,-0.284941 -0.60417,-0.604167 z M 445.75,94.294267 c 1.2375,-0.238353 3.2625,-0.238353 4.5,0 1.2375,0.238353 0.225,0.433369 -2.25,0.433369 -2.475,0 -3.4875,-0.195016 -2.25,-0.433369 z"
         id="path5"
         sodipodi:nodetypes="sssscssssssscssssssssssscccssssssscccccsssssscccssssssssscccsssssssssscssssscssssssscsssssssssssssssssssssssssscsscssssssssssssssssssscsssssssscssssssssssssssss" />
      <path
         style="fill:#8b5a36"
         d="m 475.33806,446.90963 c -2.28907,-0.54587 -4.69904,-1.63966 -5.35549,-2.43063 -2.71045,-3.26589 -3.81546,-40.2262 -1.9726,-65.979 3.95491,-55.2673 19.05439,-111.52279 41.23751,-153.63676 4.46218,-8.47132 5.69729,-10.01326 10.21289,-12.75 2.82526,-1.71228 5.58044,-3.11324 6.12262,-3.11324 0.54219,0 1.7537,1.29995 2.69224,2.88878 1.6705,2.82794 1.62029,3.11757 -2.3836,13.75 C 507.46991,274.55807 498.6542,337.76502 503.0373,389.5 c 1.00881,11.90732 4.83124,36.6147 7.4035,47.85474 l 1.33985,5.85475 -4.64032,2.07818 c -3.66273,1.64037 -7.06309,2.13468 -16.14033,2.34633 -6.325,0.14747 -13.37287,-0.17849 -15.66194,-0.72437 z"
         id="path4" />
      <path
         style="fill:#0f9442"
         d="m 647,228.9064 c 1.17471,-0.83246 0.91019,-0.9689 -1.21974,-0.62915 -1.65412,0.26386 -2.47746,0.0418 -2.10137,-0.5667 0.37838,-0.61223 -0.3978,-0.80628 -2,-0.5 -1.622,0.31007 -2.38011,0.11503 -1.99226,-0.51253 0.38375,-0.62091 -0.20914,-0.79464 -1.53164,-0.4488 -1.24023,0.32433 -1.90795,0.16007 -1.57028,-0.38628 0.32311,-0.5228 0.0793,-1.56279 -0.54168,-2.31109 -0.63116,-0.76051 -0.84183,-2.5053 -0.47768,-3.9562 C 636.11236,217.41619 635.87875,217 634.10841,217 632.61123,217 632,217.62945 632,219.17126 c 0,1.19419 -0.72688,2.97445 -1.61529,3.95614 -1.45163,1.60403 -1.7707,1.62947 -3.14908,0.25109 -0.84358,-0.84358 -2.42557,-1.30058 -3.51554,-1.01554 -1.08997,0.28503 -2.63416,-0.13416 -3.43154,-0.93155 -0.79739,-0.79738 -1.79851,-1.23426 -2.22471,-0.97085 -0.42621,0.26341 -0.57875,-0.54732 -0.33897,-1.80163 0.2466,-1.29003 -0.22466,-2.82882 -1.08502,-3.54285 -0.83653,-0.69426 -1.27457,-1.9044 -0.97342,-2.68918 0.30115,-0.78479 0.0297,-1.42689 -0.60328,-1.42689 -0.63295,0 -1.05893,-0.5625 -0.94662,-1.25 0.11232,-0.6875 -0.3557,-2.6 -1.04004,-4.25 -0.68434,-1.65 -1.319,-4.125 -1.41037,-5.5 -0.3765,-5.666 -3.44255,-3.7475 -3.59583,2.25 -0.0387,1.5125 -0.50217,2.75 -1.03003,2.75 -0.52786,0 -0.95905,1.2375 -0.95821,2.75 0.005,9.55522 -0.047,9.75 -2.6219,9.75 -1.35308,0 -2.46015,-0.36782 -2.46015,-0.81739 0,-0.44956 -0.95635,-0.51385 -2.12523,-0.14286 -1.40058,0.44452 -1.8981,0.30701 -1.4591,-0.4033 0.66786,-1.08062 -2.53618,-2.24378 -5.41567,-1.96606 -3.70465,0.35732 -6.08608,-0.22209 -5.40986,-1.31623 0.49838,-0.80641 -0.0766,-0.94888 -1.94099,-0.48095 -1.70074,0.42686 -2.64915,0.25831 -2.64915,-0.47079 0,-0.64335 -0.86702,-0.90895 -2,-0.61267 -1.29986,0.33992 -2,0.0307 -2,-0.88337 C 578,209.63287 577.52344,209 576.94098,209 c -0.58246,0 -0.80968,-0.40343 -0.50494,-0.89651 C 577.36271,206.60411 575.80611,198 574.60819,198 c -0.61598,0 -1.71866,1.35255 -2.4504,3.00567 -0.73174,1.65311 -1.67579,2.79222 -2.09789,2.53135 -0.42209,-0.26087 -1.29446,0.68237 -1.9386,2.0961 -0.94787,2.08035 -1.44402,2.34393 -2.60242,1.38255 -0.7872,-0.65332 -1.90098,-0.89755 -2.47508,-0.54274 -0.57409,0.35481 -1.0438,0.13822 -1.0438,-0.4813 0,-0.67133 -0.80801,-0.86995 -2,-0.49163 -1.1,0.34913 -2,0.18455 -2,-0.36573 0,-0.55028 -1.2375,-0.9745 -2.75,-0.94273 -3.34963,0.0704 -13.25,-3.10176 -13.25,-4.24537 0,-0.45299 -2.03053,-1.12812 -4.5123,-1.50028 -2.48176,-0.37217 -4.74102,-1.04675 -5.02057,-1.49908 -0.59031,-0.95514 6.02887,-5.66963 12.53287,-8.92648 2.475,-1.23934 5.17708,-2.84574 6.00463,-3.56977 0.82755,-0.72403 2.62755,-1.4705 4,-1.65881 1.37245,-0.18832 3.05787,-0.69505 3.74537,-1.12609 0.6875,-0.43103 1.25,-0.47704 1.25,-0.10223 0,0.3748 0.5625,0.235 1.25,-0.31066 2.37596,-1.8858 10.57303,-4.00992 19.25,-4.98828 6.19304,-0.6983 19.46677,-0.40306 20.87001,0.46419 0.57175,0.35336 2.39018,0.79033 4.04098,0.97105 4.87673,0.53388 19.22077,8.01852 23.6072,12.3181 2.23443,2.19019 4.42399,3.98217 4.86567,3.98217 0.86416,0 7.27941,7.44769 10.98254,12.75 1.24838,1.7875 2.01415,3.25 1.70169,3.25 -0.31245,0 0.34832,0.91641 1.46838,2.03647 1.12007,1.12007 1.76851,2.47007 1.44099,3 -0.32752,0.52994 -0.1678,0.96353 0.35494,0.96353 1.32854,0 4.35161,7.89325 3.53137,9.22043 -0.4023,0.65093 -0.20863,0.80172 0.48172,0.37506 0.63498,-0.39244 1.14762,-0.34947 1.1392,0.0955 -0.0341,1.80382 -1.61021,2.99582 -3.73469,2.8246 -1.2375,-0.0997 -2.25,0.19345 -2.25,0.65154 0,0.45808 -0.7875,0.82599 -1.75,0.81757 -1.51043,-0.0132 -1.54466,-0.16083 -0.25,-1.07829 z"
         id="path3"
         sodipodi:nodetypes="ssssssssssssssssssssssssscsssssssssssssssssssssssssssssssssssssssssssssssss" />
      <path
         style="fill:#277238"
         d="m 652.25,230.8029 c -3.8221,-1.01154 -4.3676,-2.65061 -0.75,-2.25349 1.37791,0.15125 2.51365,-0.24709 2.53041,-0.88752 0.0167,-0.63907 0.49857,-0.35749 1.07077,0.62574 1.5806,2.71597 0.73288,3.46382 -2.85118,2.51527 z m -11.66985,-3.13935 c -2.15592,-0.65049 -4.10268,-1.8534 -4.32613,-2.67315 -0.27853,-1.0218 -0.14318,-1.12203 0.43046,-0.31878 0.4602,0.64442 3.30696,1.84103 6.32613,2.65914 3.01916,0.8181 4.58939,1.49377 3.48939,1.50147 -1.1,0.008 -3.76393,-0.5182 -5.91985,-1.16868 z M 629.5,224 c 0.33992,-0.55 0.81648,-1 1.05902,-1 0.24254,0 0.44098,0.45 0.44098,1 0,0.55 -0.47656,1 -1.05902,1 -0.58246,0 -0.7809,-0.45 -0.44098,-1 z m -5.5,-1 c -1.33333,-0.86167 -1.33333,-0.96937 0,-0.96937 0.825,0 2.175,0.43621 3,0.96937 1.33333,0.86167 1.33333,0.96937 0,0.96937 -0.825,0 -2.175,-0.43621 -3,-0.96937 z m -6.90217,-4.14922 C 615.7507,214.98642 615.74302,214.72314 617,215.5 c 0.55,0.33992 1,1.46912 1,2.50933 0,1.04021 0.7875,2.34997 1.75,2.91057 1.56271,0.91019 1.57318,1.02254 0.0978,1.04969 -0.96844,0.0178 -2.10651,-1.27287 -2.75,-3.11881 z m 14.98112,-0.43411 c 0.048,-1.16495 0.28494,-1.4019 0.60416,-0.60417 0.28887,0.72187 0.25335,1.58437 -0.0789,1.91667 -0.33229,0.33229 -0.56864,-0.25834 -0.52522,-1.3125 z m 3,0 c 0.048,-1.16495 0.28494,-1.4019 0.60416,-0.60417 0.28887,0.72187 0.25335,1.58437 -0.0789,1.91667 -0.33229,0.33229 -0.56864,-0.25834 -0.52522,-1.3125 z m -32.26645,-1.09978 c 0.72187,-0.28887 1.58438,-0.25335 1.91667,0.0789 0.33229,0.33229 -0.25834,0.56864 -1.3125,0.52522 -1.16495,-0.048 -1.4019,-0.28494 -0.60417,-0.60416 z M 593.5,215 l -2,-0.85943 2,-0.055 c 1.1,-0.0302 2.675,0.38124 3.5,0.9144 1.33333,0.86167 1.33333,0.96327 0,0.9144 -0.825,-0.0302 -2.4,-0.44171 -3.5,-0.9144 z m -8.6875,-2.68311 c 0.72187,-0.28887 1.58438,-0.25335 1.91667,0.0789 0.33229,0.33229 -0.25834,0.56864 -1.3125,0.52522 -1.16495,-0.048 -1.4019,-0.28494 -0.60417,-0.60416 z m -5,-1 c 0.72187,-0.28887 1.58438,-0.25335 1.91667,0.0789 0.33229,0.33229 -0.25834,0.56864 -1.3125,0.52522 -1.16495,-0.048 -1.4019,-0.28494 -0.60417,-0.60416 z M 576.5,210 c -0.33992,-0.55 -0.14148,-1 0.44098,-1 0.58246,0 1.05902,0.45 1.05902,1 0,0.55 -0.19844,1 -0.44098,1 -0.24254,0 -0.7191,-0.45 -1.05902,-1 z m -8.41971,-4 C 569.5381,202.93897 570,202.37166 570,203.6422 c 0,0.53655 -0.69982,1.84905 -1.55517,2.91667 -1.46637,1.83031 -1.48719,1.7984 -0.36454,-0.55887 z m 8.0776,0 c 0,-1.375 0.22698,-1.9375 0.50439,-1.25 0.27741,0.6875 0.27741,1.8125 0,2.5 -0.27741,0.6875 -0.50439,0.125 -0.50439,-1.25 z m 29.92106,0.41667 c 0.048,-1.16495 0.28494,-1.4019 0.60416,-0.60417 0.28887,0.72187 0.25335,1.58437 -0.0789,1.91667 -0.33229,0.33229 -0.56864,-0.25834 -0.52522,-1.3125 z m -50.26645,-2.09978 c 0.72187,-0.28887 1.58438,-0.25335 1.91667,0.0789 0.33229,0.33229 -0.25834,0.56864 -1.3125,0.52522 -1.16495,-0.048 -1.4019,-0.28494 -0.60417,-0.60416 z m -22.00985,-5.19525 c -6.51268,-1.6032 -6.80478,-1.81374 -10.59306,-7.63515 -5.13483,-7.89065 -10.84659,-15.00415 -18.9155,-23.55762 l -6.6018,-6.99825 2.83095,-2.95488 c 1.55703,-1.62518 2.62317,-3.16267 2.3692,-3.41663 -0.25397,-0.25397 -2.69616,0.11377 -5.4271,0.81719 -4.90633,1.26375 -5.02476,1.2383 -9.96534,-2.14206 -2.8014,-1.91672 -7.50669,-6.78778 -10.70064,-11.07762 l -5.70064,-7.65662 10.20064,-5.19874 c 5.61035,-2.85931 9.75064,-5.24537 9.20064,-5.30237 -0.55,-0.057 -6.66785,-0.0588 -13.59521,-0.004 l -12.59521,0.0997 -2.65479,-3.48061 c -3.18009,-4.16931 -3.177,-4.1347 -0.65479,-7.34118 2.91317,-3.7035 2.48081,-4.35379 -1.87333,-2.81756 l -3.87334,1.36659 -5.57005,-8.16095 -5.57005,-8.16095 5.69339,-0.317818 c 8.05481,-0.449638 20.16142,1.503933 29.24883,4.719711 20.63214,7.301127 34.39565,21.312327 40.90877,41.644947 2.40807,7.5175 7.00839,32.62479 7.03036,38.36983 0.009,2.46778 1.16178,0.39204 3.50482,-6.31333 8.17044,-23.38236 24.63162,-39.51959 45.9607,-45.05621 7.67617,-1.99259 24.99853,-1.99357 33.5399,-0.002 6.96823,1.62484 14.96599,4.32402 16.34688,5.51694 0.75133,0.64905 -3.11082,3.84103 -12.93459,10.69015 l -3.08772,2.15275 -3.74005,-2.54143 c -4.70485,-3.19703 -5.53885,-2.48138 -2.20381,1.89108 l 2.58269,3.38608 -4.51094,3.1796 c -2.48101,1.74878 -4.89712,3.1796 -5.36913,3.1796 -0.472,0 -6.16485,-2.244 -12.65076,-4.98667 -6.48592,-2.74266 -12.00125,-4.77799 -12.2563,-4.52294 -0.25504,0.25505 2.97596,4.25246 7.18001,8.88314 4.20404,4.63068 7.64372,8.655 7.64372,8.94294 0,0.90967 -17.87463,13.68537 -20.59381,14.7192 -2.28186,0.86756 -3.20438,0.48228 -7.54304,-3.15025 -2.71877,-2.27628 -5.15611,-3.9258 -5.41631,-3.6656 -0.2602,0.26021 0.20781,2.10274 1.04003,4.09452 2.02614,4.84923 1.90862,6.68566 -0.42785,6.68566 -1.06754,0 -2.22439,0.45856 -2.57077,1.01902 -0.34638,0.56045 -2.96044,2.19599 -5.80902,3.63452 -7.14796,3.60971 -13.82298,8.30486 -13.2121,9.29327 0.27955,0.45233 2.53881,1.12691 5.02057,1.49908 2.48177,0.37216 4.5123,1.09908 4.5123,1.61538 0,1.11342 0.26715,1.14404 -8.19735,-0.93963 z m 46.00985,-22.80475 c 0.72187,-0.28887 1.58438,-0.25335 1.91667,0.0789 0.33229,0.33229 -0.25834,0.56864 -1.3125,0.52522 -1.16495,-0.048 -1.4019,-0.28494 -0.60417,-0.60416 z"
         id="path2"
         sodipodi:nodetypes="ssssssssscsssssssssssssssssssssssssssssssssccsssscssssssssssssssssssssssssssssssssscsscssssscssscssscccssscssssscsscssssssssssssssssccsssss" />
      <text
         xml:space="preserve"
         style="font-style:normal;font-variant:normal;font-weight:normal;font-stretch:normal;font-size:192px;font-family:'Cooper Black';-inkscape-font-specification:'Cooper Black, ';writing-mode:lr-tb;direction:ltr;fill:#000000"
         x="279.27274"
         y="542.25452"
         id="text10"><tspan
           sodipodi:role="line"
           id="tspan10"
           x="279.27274"
           y="542.25452"
           style="font-size:192px;fill:#008000">IPv6</tspan></text>
    </g>
  </g>
</svg>
